<svg xmlns="http://www.w3.org/2000/svg" viewBox="0 0 100 100">
  <path d="M31 15 L18 4 L70 4 L83 15 Z" fill="#000000"/>
  <path d="M31 15 L18 4 L18 78 L31 89 Z" fill="#000000"/>
  <path fill-rule="evenodd" clip-rule="evenodd" d="M31 21 Q31 15 37 15 L77 15 Q83 15 83 21 L83 83 Q83 89 77 89 L37 89 Q31 89 31 83 Z M40 24 L76 24 L76 38 L40 38 Z M40 41 L61 41 L61 46 L40 46 Z M42 62 a16.5 16.5 0 1 0 33 0 a16.5 16.5 0 1 0 -33 0 Z" fill="#000000"/>
  <path d="M50 62 a8.5 8.5 0 1 0 17 0 a8.5 8.5 0 1 0 -17 0 Z" fill="#000000"/>
</svg>
